<svg xmlns="http://www.w3.org/2000/svg" xmlns:xlink="http://www.w3.org/1999/xlink" width="100%" height="100%" viewBox="380.856 161.844 243.03 189.909" preserveAspectRatio="xMidYMid meet"  ><defs id="svgEditorDefs"><polygon id="svgEditorShapeDefs" fill="khaki" stroke="black" style="vector-effect: non-scaling-stroke; stroke-width: 1px;"/></defs><rect id="svgEditorBackground" x="377.038330078125" y="160.70083618164062" width="251.3301544189453" height="183.56312561035156" style="stroke: none; fill: none;"/><path d="M7.200407100540769,-3.576343004005538l-4,6.928h8Z" stroke="black" id="e1_shape" style="vector-effect: none; fill: none;" transform="matrix(18.125 0 0 18.125 372.5 243.785)" stroke-width="1px"/><rect x="379.3818359375" y="296.6568298339844" stroke="black" id="e2_rectangle" style="stroke-width: 1px; vector-effect: none;" width="246.799" height="17.2126" fill="black" ry="0" rx="0"/><rect x="378.943359375" y="469.435791015625" stroke="black" id="e4_rectangle" style="stroke-width: 1px; vector-effect: none;" width="35.537" height="10.4521" ry="0" rx="0" transform="matrix(0.572917 -0.946456 0.571377 0.84512 -95.9137 300.953)" fill="black"/><rect x="411.37322998046875" y="505.75518798828125" stroke="black" id="e6_rectangle" style="stroke-width: 1px; vector-effect: none;" width="35.537" height="10.4521" ry="0" rx="0" transform="matrix(0.572917 -0.946456 0.571377 0.84512 -95.9137 300.953)" fill="black"/><rect x="441.83587646484375" y="540.9400024414062" stroke="black" id="e7_rectangle" style="stroke-width: 1px; vector-effect: none;" width="35.537" height="10.4521" ry="0" rx="0" transform="matrix(0.572917 -0.946456 0.571377 0.84512 -95.9137 300.953)" fill="black"/><rect x="472.09356689453125" y="576.9267578125" stroke="black" id="e3_rectangle" style="stroke-width: 1px; vector-effect: none;" width="35.537" height="10.4521" ry="0" rx="0" transform="matrix(0.572917 -0.946456 0.571377 0.84512 -95.9137 300.953)" fill="black"/><rect x="537.0158081054688" y="650.0755004882812" stroke="black" id="e5_rectangle" style="stroke-width: 1px; vector-effect: none;" width="35.537" height="10.4521" ry="0" rx="0" transform="matrix(0.572917 -0.946456 0.571377 0.84512 -95.9137 300.953)" fill="black"/><rect x="506.3808898925781" y="612.1546020507812" stroke="black" id="e8_rectangle" style="stroke-width: 1px; vector-effect: none;" width="35.537" height="10.4521" ry="0" rx="0" transform="matrix(0.572917 -0.946456 0.571377 0.84512 -95.9137 300.953)" fill="black"/></svg>